<?xml version="1.0" encoding="UTF-8" standalone="no"?>
<!DOCTYPE svg PUBLIC "-//W3C//DTD SVG 1.1//EN" "http://www.w3.org/Graphics/SVG/1.1/DTD/svg11.dtd">
<svg xmlns="http://www.w3.org/2000/svg" version="1.1" viewBox="0 0 547 138">
<path fill="#ffffff" d="M 0.00,0.00 Q 273.50,0.00 547.00,0.00 Q 547.00,69.00 547.00,138.00 Q 273.50,138.00 0.00,138.00 Q 0.00,69.00 0.00,0.00 ZM 67.88,79.07 Q 72.00,70.72 75.71,62.16 Q 76.75,59.77 76.78,57.12 Q 76.92,42.41 76.73,26.18 A 2.24,2.22 -76.9 0 0 75.53,24.23 L 43.53,7.64 A 3.14,3.12 -44.8 0 0 40.66,7.64 L 8.65,24.15 A 2.06,2.05 77.0 0 0 7.53,25.95 Q 7.23,42.45 7.47,57.56 Q 7.50,59.49 7.93,60.89 Q 8.43,62.52 9.20,64.06 Q 25.54,96.85 41.82,129.69 Q 42.37,130.81 42.93,129.70 Q 51.59,112.50 59.94,95.15 Q 60.00,95.01 67.88,79.07 ZM 538.00,28.56 A 0.82 0.82 0.0 0 0 537.18,27.74 L 529.58,27.74 A 0.82 0.82 0.0 0 0 528.76,28.56 L 528.76,104.18 A 0.82 0.82 0.0 0 0 529.58,105.00 L 537.18,105.00 A 0.82 0.82 0.0 0 0 538.00,104.18 L 538.00,28.56 ZM 164.9928,28.2522 A 0.26 0.26 0.0 0 0 164.7323,27.9926 L 156.2524,28.0074 A 0.26 0.26 0.0 0 0 155.9928,28.2679 L 156.0072,36.5078 A 0.26 0.26 0.0 0 0 156.2677,36.7674 L 164.7476,36.7526 A 0.26 0.26 0.0 0 0 165.0072,36.4921 L 164.9928,28.2522 ZM 240.33,97.51 Q 227.43,96.18 221.81,85.69 Q 216.82,76.36 217.59,65.85 Q 218.40,54.75 223.89,47.43 Q 230.01,39.26 241.13,38.75 Q 248.37,38.42 253.92,41.09 Q 260.03,44.04 263.89,50.31 Q 264.91,51.97 266.64,51.35 L 273.34,48.95 A 0.66,0.63 66.0 0 0 273.67,48.04 Q 265.71,32.24 247.75,31.00 Q 240.02,30.47 232.49,32.20 Q 224.26,34.08 218.48,39.45 Q 213.42,44.15 210.36,52.28 Q 204.28,68.39 210.58,84.39 Q 213.69,92.30 218.62,96.95 Q 224.23,102.25 232.18,104.33 Q 243.83,107.38 253.75,104.50 Q 266.87,100.70 274.15,87.76 A 0.73,0.67 -60.3 0 0 273.93,86.79 L 268.12,83.59 A 2.10,1.68 -59.3 0 0 265.67,84.51 Q 256.56,99.18 240.33,97.51 ZM 142.19,67.20 L 103.66,67.01 A 0.86,0.82 0.3 0 1 102.80,66.18 L 103.16,40.68 A 0.54,0.51 -0.0 0 1 103.69,40.18 L 143.57,39.57 A 0.56,0.51 -0.6 0 0 144.12,39.06 L 144.12,32.44 A 0.56,0.51 0.0 0 0 143.56,31.93 L 93.85,31.77 A 1.04,1.04 -89.5 0 0 92.81,32.81 L 92.75,103.90 A 0.82,0.75 89.3 0 0 93.52,104.72 L 101.64,104.48 A 0.98,0.88 89.7 0 0 102.50,103.51 L 102.74,76.43 A 0.98,0.95 -0.0 0 1 103.71,75.49 L 142.25,75.26 A 0.66,0.66 7.4 0 0 142.89,74.77 Q 143.92,71.06 142.80,67.65 A 0.66,0.64 80.5 0 0 142.19,67.20 ZM 178.26,49.00 Q 174.74,47.94 174.28,50.64 Q 173.98,52.42 174.28,53.87 Q 174.73,56.11 177.92,55.46 Q 180.49,54.95 180.51,57.56 Q 180.64,74.59 180.94,92.71 Q 181.03,97.86 181.69,99.72 Q 183.06,103.58 187.00,105.00 Q 193.03,107.18 200.22,104.37 A 1.08,1.06 -1.4 0 0 200.85,103.72 Q 202.78,97.81 198.06,98.32 Q 194.64,98.68 193.92,98.48 Q 191.48,97.77 190.75,95.25 Q 190.00,92.67 189.95,88.04 Q 189.87,81.14 189.87,80.95 Q 189.47,68.76 189.99,56.83 A 1.13,1.03 -89.6 0 1 190.99,55.75 L 199.15,55.54 A 1.06,0.92 -1.2 0 0 200.18,54.61 L 200.13,49.69 A 0.58,0.54 0.5 0 0 199.56,49.15 L 192.24,49.00 Q 189.84,48.95 189.78,46.54 L 189.54,37.24 A 0.74,0.69 8.8 0 0 189.02,36.58 Q 186.80,35.87 184.54,36.43 A 0.91,0.89 0.5 0 0 183.90,37.05 L 181.15,47.28 Q 180.51,49.67 178.26,49.00 ZM 415.80,55.96 Q 419.95,55.09 422.00,55.50 Q 424.66,56.03 425.15,54.16 Q 425.45,53.04 425.35,51.35 Q 425.19,48.71 421.99,48.89 Q 419.28,49.05 416.41,48.93 A 1.87,1.75 -89.5 0 1 414.72,47.10 L 414.55,37.51 A 0.77,0.74 9.8 0 0 414.04,36.82 Q 408.95,34.99 407.92,40.04 Q 407.13,43.93 405.89,48.12 A 0.89,0.87 -81.5 0 1 405.05,48.75 Q 403.25,48.75 401.51,48.86 Q 398.77,49.03 399.43,53.61 Q 399.66,55.19 401.51,55.46 L 404.96,55.95 A 0.64,0.56 -86.4 0 1 405.44,56.57 Q 405.64,74.42 405.94,92.26 Q 406.02,97.35 407.11,99.54 Q 408.90,103.17 413.06,104.69 Q 416.97,106.11 421.14,105.61 Q 423.94,105.27 425.44,104.00 Q 427.99,101.86 425.50,98.46 A 0.71,0.68 -27.7 0 0 424.71,98.23 Q 419.68,99.89 417.09,96.75 Q 415.53,94.87 415.34,90.35 Q 414.62,73.46 415.29,56.57 A 0.65,0.64 85.5 0 1 415.80,55.96 ZM 503.50,94.96 Q 504.57,93.97 504.50,95.43 Q 504.15,102.83 511.00,105.00 Q 515.16,106.32 520.58,104.71 A 1.07,1.02 1.3 0 0 521.26,104.09 Q 522.04,102.02 521.15,100.00 A 0.81,0.71 -10.4 0 0 520.43,99.57 Q 513.21,99.63 513.50,92.00 Q 513.99,79.36 512.82,64.76 Q 512.44,59.88 511.32,57.40 Q 509.57,53.51 506.19,51.56 Q 493.29,44.12 478.75,50.82 Q 471.63,54.09 469.78,61.61 A 1.13,1.05 -81.8 0 0 470.74,63.00 L 478.28,63.20 A 1.21,1.09 -79.3 0 0 479.37,62.37 Q 481.46,56.20 487.50,55.22 Q 493.05,54.32 497.19,56.06 Q 502.16,58.15 503.22,63.40 Q 503.87,66.57 503.78,68.08 Q 503.58,71.48 498.75,71.00 Q 491.08,70.24 482.65,72.18 Q 475.41,73.84 471.99,76.78 Q 467.07,81.00 467.00,88.25 Q 466.80,107.29 486.26,105.87 Q 496.00,105.16 501.54,97.30 Q 502.62,95.77 503.50,94.96 ZM 289.70,56.19 Q 286.04,60.63 284.75,66.75 Q 282.29,78.47 285.47,89.32 Q 287.23,95.29 290.49,98.84 Q 294.37,103.07 300.01,104.68 Q 303.61,105.71 308.54,106.00 Q 313.29,106.27 317.19,105.19 Q 326.04,102.72 330.77,94.45 A 1.47,1.35 -67.4 0 0 330.00,92.34 L 324.41,90.90 A 1.21,1.07 -65.4 0 0 323.19,91.44 Q 318.09,99.26 309.60,99.25 Q 304.38,99.25 300.47,96.64 Q 296.15,93.75 294.69,88.36 Q 294.15,86.35 293.75,84.15 Q 293.35,81.95 293.48,79.82 A 0.88,0.87 1.7 0 1 294.36,79.00 Q 311.00,79.00 327.00,79.13 Q 329.69,79.16 332.33,78.56 A 1.10,1.10 -6.2 0 0 333.19,77.49 Q 333.22,68.68 329.79,60.37 Q 327.41,54.58 322.69,51.81 Q 312.90,46.07 301.24,48.95 Q 294.25,50.67 289.70,56.19 ZM 354.29,57.44 L 353.79,50.25 A 0.72,0.71 6.4 0 0 353.27,49.61 Q 349.79,48.64 346.19,49.11 A 0.61,0.60 87.2 0 0 345.67,49.69 Q 344.89,76.81 345.80,103.93 A 0.70,0.69 -82.8 0 0 346.30,104.59 Q 350.17,105.73 353.97,104.36 A 0.77,0.74 82.8 0 0 354.47,103.68 Q 355.15,91.50 354.95,79.30 Q 354.77,68.25 355.88,64.80 Q 359.07,54.96 371.03,55.28 Q 374.71,55.38 376.69,56.71 Q 379.34,58.47 380.06,62.04 Q 380.81,65.76 380.90,69.56 Q 381.26,86.03 381.25,103.84 A 1.12,1.04 89.0 0 0 382.33,104.96 L 389.35,104.71 A 0.73,0.67 89.2 0 0 389.99,103.99 Q 390.38,85.88 390.25,68.00 Q 390.22,64.22 389.52,60.50 Q 387.63,50.52 377.76,48.43 Q 366.11,45.97 358.09,54.34 Q 356.46,56.04 354.70,57.60 Q 354.32,57.93 354.29,57.44 ZM 444.32,58.68 Q 443.31,59.69 443.26,58.26 L 443.02,50.84 A 1.66,1.46 89.9 0 0 441.61,49.24 L 435.06,48.99 A 0.57,0.48 -89.0 0 0 434.56,49.56 L 434.50,103.49 A 1.33,1.32 6.6 0 0 435.53,104.78 Q 439.86,105.77 442.52,104.77 A 1.92,1.91 80.1 0 0 443.75,103.01 Q 443.92,88.13 444.16,73.25 Q 444.24,67.72 446.00,63.75 Q 449.90,54.95 460.01,56.19 A 0.52,0.46 3.9 0 0 460.58,55.75 L 460.66,49.76 A 1.64,1.50 3.5 0 0 459.18,48.23 Q 449.61,47.23 445.89,55.11 Q 445.72,55.47 445.27,56.94 Q 444.91,58.09 444.32,58.68 ZM 165.00,49.14 A 0.38 0.38 0.0 0 0 164.62,48.76 L 156.38,48.76 A 0.38 0.38 0.0 0 0 156.00,49.14 L 156.00,104.62 A 0.38 0.38 0.0 0 0 156.38,105.00 L 164.62,105.00 A 0.38 0.38 0.0 0 0 165.00,104.62 L 165.00,49.14 Z"/>
<path fill="#000000" d="M 59.94,95.15 Q 51.59,112.50 42.93,129.70 Q 42.37,130.81 41.82,129.69 Q 25.54,96.85 9.20,64.06 Q 8.43,62.52 7.93,60.89 Q 7.50,59.49 7.47,57.56 Q 7.23,42.45 7.53,25.95 A 2.06,2.05 77.0 0 1 8.65,24.15 L 40.66,7.64 A 3.14,3.12 -44.8 0 1 43.53,7.64 L 75.53,24.23 A 2.24,2.22 -76.9 0 1 76.73,26.18 Q 76.92,42.41 76.78,57.12 Q 76.75,59.77 75.71,62.16 Q 72.00,70.72 67.88,79.07 Q 60.00,95.01 59.94,95.15 ZM 42.54,12.93 A 1.27,1.21 44.3 0 0 41.40,12.92 L 13.54,27.17 A 1.48,1.46 76.5 0 0 12.75,28.48 L 12.75,56.85 A 1.59,1.55 -77.0 0 0 13.61,58.26 L 41.13,72.22 A 2.47,2.47 0.0 0 0 43.37,72.22 L 70.45,58.42 A 1.89,1.88 77.2 0 0 71.47,56.79 Q 71.76,44.14 71.75,32.68 Q 71.75,32.60 71.87,30.83 Q 72.02,28.54 70.56,27.26 Q 70.34,27.07 66.90,25.30 Q 55.62,19.48 42.54,12.93 Z"/>
<path fill="#ffffff" d="M 42.54,12.93 Q 55.62,19.48 66.90,25.30 Q 70.34,27.07 70.56,27.26 Q 72.02,28.54 71.87,30.83 Q 71.75,32.60 71.75,32.68 Q 71.76,44.14 71.47,56.79 A 1.89,1.88 77.2 0 1 70.45,58.42 L 43.37,72.22 A 2.47,2.47 -0.0 0 1 41.13,72.22 L 13.61,58.26 A 1.59,1.55 -77.0 0 1 12.75,56.85 L 12.75,28.48 A 1.48,1.46 76.5 0 1 13.54,27.17 L 41.40,12.92 A 1.27,1.21 44.3 0 1 42.54,12.93 ZM 47.2932,29.1608 A 1.21 1.21 0.0 0 0 45.6314,28.7526 L 45.5801,28.7837 A 1.21 1.21 0.0 0 0 45.1719,30.4455 L 54.5068,45.8592 A 1.21 1.21 0.0 0 0 56.1686,46.2674 L 56.2199,46.2363 A 1.21 1.21 0.0 0 0 56.6281,44.5745 L 47.2932,29.1608 ZM 52.3941,30.1210 A 1.16 1.16 0.0 0 0 50.7969,29.7464 L 50.7459,29.7780 A 1.16 1.16 0.0 0 0 50.3713,31.3752 L 56.3259,40.9790 A 1.16 1.16 0.0 0 0 57.9231,41.3536 L 57.9741,41.3220 A 1.16 1.16 0.0 0 0 58.3487,39.7248 L 52.3941,30.1210 ZM 58.58,31.66 Q 57.12,30.66 55.52,31.14 A 0.48,0.45 69.6 0 0 55.25,31.78 Q 56.28,34.15 58.35,36.23 A 0.70,0.70 38.7 0 0 59.44,36.11 Q 61.16,33.43 58.58,31.66 ZM 47.8352,39.2627 A 1.26 1.26 0.0 0 0 46.1047,38.8377 L 36.9181,44.4013 A 1.26 1.26 0.0 0 0 36.4930,46.1318 L 36.5448,46.2173 A 1.26 1.26 0.0 0 0 38.2753,46.6423 L 47.4619,41.0787 A 1.26 1.26 0.0 0 0 47.8870,39.3482 L 47.8352,39.2627 ZM 29.9456,39.7347 A 1.28 1.28 0.0 0 0 28.1869,39.3060 L 28.1357,39.3372 A 1.28 1.28 0.0 0 0 27.7069,41.0959 L 36.9544,56.3053 A 1.28 1.28 0.0 0 0 38.7131,56.7340 L 38.7643,56.7028 A 1.28 1.28 0.0 0 0 39.1931,54.9441 L 29.9456,39.7347 ZM 28.1319,44.6859 A 1.16 1.16 0.0 0 0 26.5394,44.2918 L 26.4880,44.3228 A 1.16 1.16 0.0 0 0 26.0940,45.9153 L 31.8481,55.4541 A 1.16 1.16 0.0 0 0 33.4406,55.8482 L 33.4920,55.8172 A 1.16 1.16 0.0 0 0 33.8860,54.2247 L 28.1319,44.6859 ZM 24.90,49.51 Q 23.09,52.68 26.12,54.61 Q 28.00,55.81 28.40,54.16 Q 28.59,53.38 28.12,52.42 Q 27.35,50.85 26.31,49.43 A 0.84,0.84 41.7 0 0 24.90,49.51 Z"/>
<rect fill="#010101" x="528.76" y="27.74" width="9.24" height="77.26" rx="0.82"/>
<rect fill="#000000" x="-4.50" y="-4.38" transform="translate(160.50,32.38) rotate(-0.1)" width="9.00" height="8.76" rx="0.26"/>
<rect fill="#010101" x="-1.24" y="-10.22" transform="translate(50.90,37.51) rotate(-31.2)" width="2.48" height="20.44" rx="1.21"/>
<rect fill="#010101" x="-1.19" y="-6.81" transform="translate(54.36,35.55) rotate(-31.8)" width="2.38" height="13.62" rx="1.16"/>
<path fill="#010101" d="M 240.33,97.51 Q 256.56,99.18 265.67,84.51 A 2.10,1.68 -59.3 0 1 268.12,83.59 L 273.93,86.79 A 0.73,0.67 -60.3 0 1 274.15,87.76 Q 266.87,100.70 253.75,104.50 Q 243.83,107.38 232.18,104.33 Q 224.23,102.25 218.62,96.95 Q 213.69,92.30 210.58,84.39 Q 204.28,68.39 210.36,52.28 Q 213.42,44.15 218.48,39.45 Q 224.26,34.08 232.49,32.20 Q 240.02,30.47 247.75,31.00 Q 265.71,32.24 273.67,48.04 A 0.66,0.63 66.0 0 1 273.34,48.95 L 266.64,51.35 Q 264.91,51.97 263.89,50.31 Q 260.03,44.04 253.92,41.09 Q 248.37,38.42 241.13,38.75 Q 230.01,39.26 223.89,47.43 Q 218.40,54.75 217.59,65.85 Q 216.82,76.36 221.81,85.69 Q 227.43,96.18 240.33,97.51 Z"/>
<path fill="#000000" d="M 58.58,31.66 Q 61.16,33.43 59.44,36.11 A 0.70,0.70 38.7 0 1 58.35,36.23 Q 56.28,34.15 55.25,31.78 A 0.48,0.45 69.6 0 1 55.52,31.14 Q 57.12,30.66 58.58,31.66 Z"/>
<path fill="#000000" d="M 142.19,67.20 A 0.66,0.64 80.5 0 1 142.80,67.65 Q 143.92,71.06 142.89,74.77 A 0.66,0.66 7.4 0 1 142.25,75.26 L 103.71,75.49 A 0.98,0.95 -0.0 0 0 102.74,76.43 L 102.50,103.51 A 0.98,0.88 89.7 0 1 101.64,104.48 L 93.52,104.72 A 0.82,0.75 89.3 0 1 92.75,103.90 L 92.81,32.81 A 1.04,1.04 -89.5 0 1 93.85,31.77 L 143.56,31.93 A 0.56,0.51 -0.0 0 1 144.12,32.44 L 144.12,39.06 A 0.56,0.51 -0.6 0 1 143.57,39.57 L 103.69,40.18 A 0.54,0.51 -0.0 0 0 103.16,40.68 L 102.80,66.18 A 0.86,0.82 0.3 0 0 103.66,67.01 L 142.19,67.20 Z"/>
<path fill="#010101" d="M 178.26,49.00 Q 180.51,49.67 181.15,47.28 L 183.90,37.05 A 0.91,0.89 0.5 0 1 184.54,36.43 Q 186.80,35.87 189.02,36.58 A 0.74,0.69 8.8 0 1 189.54,37.24 L 189.78,46.54 Q 189.84,48.95 192.24,49.00 L 199.56,49.15 A 0.58,0.54 0.5 0 1 200.13,49.69 L 200.18,54.61 A 1.06,0.92 -1.2 0 1 199.15,55.54 L 190.99,55.75 A 1.13,1.03 -89.6 0 0 189.99,56.83 Q 189.47,68.76 189.87,80.95 Q 189.87,81.14 189.95,88.04 Q 190.00,92.67 190.75,95.25 Q 191.48,97.77 193.92,98.48 Q 194.64,98.68 198.06,98.32 Q 202.78,97.81 200.85,103.72 A 1.08,1.06 -1.4 0 1 200.22,104.37 Q 193.03,107.18 187.00,105.00 Q 183.06,103.58 181.69,99.72 Q 181.03,97.86 180.94,92.71 Q 180.64,74.59 180.51,57.56 Q 180.49,54.95 177.92,55.46 Q 174.73,56.11 174.28,53.87 Q 173.98,52.42 174.28,50.64 Q 174.74,47.94 178.26,49.00 Z"/>
<path fill="#000000" d="M 415.29,56.57 Q 414.62,73.46 415.34,90.35 Q 415.53,94.87 417.09,96.75 Q 419.68,99.89 424.71,98.23 A 0.71,0.68 -27.7 0 1 425.50,98.46 Q 427.99,101.86 425.44,104.00 Q 423.94,105.27 421.14,105.61 Q 416.97,106.11 413.06,104.69 Q 408.90,103.17 407.11,99.54 Q 406.02,97.35 405.94,92.26 Q 405.64,74.42 405.44,56.57 A 0.64,0.56 -86.4 0 0 404.96,55.95 L 401.51,55.46 Q 399.66,55.19 399.43,53.61 Q 398.77,49.03 401.51,48.86 Q 403.25,48.75 405.05,48.75 A 0.89,0.87 -81.5 0 0 405.89,48.12 Q 407.13,43.93 407.92,40.04 Q 408.95,34.99 414.04,36.82 A 0.77,0.74 9.8 0 1 414.55,37.51 L 414.72,47.10 A 1.87,1.75 -89.5 0 0 416.41,48.93 Q 419.28,49.05 421.99,48.89 Q 425.19,48.71 425.35,51.35 Q 425.45,53.04 425.15,54.16 Q 424.66,56.03 422.00,55.50 Q 419.95,55.09 415.80,55.96 A 0.65,0.64 85.5 0 0 415.29,56.57 Z"/>
<rect fill="#010101" x="-6.63" y="-1.31" transform="translate(42.19,42.74) rotate(-31.2)" width="13.26" height="2.62" rx="1.26"/>
<rect fill="#000000" x="-1.31" y="-10.18" transform="translate(33.45,48.02) rotate(-31.3)" width="2.62" height="20.36" rx="1.28"/>
<rect fill="#000000" x="-1.19" y="-6.73" transform="translate(29.99,50.07) rotate(-31.1)" width="2.38" height="13.46" rx="1.16"/>
<path fill="#010101" d="M 503.50,94.96 Q 502.62,95.77 501.54,97.30 Q 496.00,105.16 486.26,105.87 Q 466.80,107.29 467.00,88.25 Q 467.07,81.00 471.99,76.78 Q 475.41,73.84 482.65,72.18 Q 491.08,70.24 498.75,71.00 Q 503.58,71.48 503.78,68.08 Q 503.87,66.57 503.22,63.40 Q 502.16,58.15 497.19,56.06 Q 493.05,54.32 487.50,55.22 Q 481.46,56.20 479.37,62.37 A 1.21,1.09 -79.3 0 1 478.28,63.20 L 470.74,63.00 A 1.13,1.05 -81.8 0 1 469.78,61.61 Q 471.63,54.09 478.75,50.82 Q 493.29,44.12 506.19,51.56 Q 509.57,53.51 511.32,57.40 Q 512.44,59.88 512.82,64.76 Q 513.99,79.36 513.50,92.00 Q 513.21,99.63 520.43,99.57 A 0.81,0.71 -10.4 0 1 521.15,100.00 Q 522.04,102.02 521.26,104.09 A 1.07,1.02 1.3 0 1 520.58,104.71 Q 515.16,106.32 511.00,105.00 Q 504.15,102.83 504.50,95.43 Q 504.57,93.97 503.50,94.96 ZM 479.00,82.48 Q 476.92,85.40 476.63,88.75 Q 476.33,92.19 478.25,94.88 Q 481.36,99.24 487.81,98.56 Q 499.00,97.38 502.42,86.97 Q 503.74,82.97 503.75,78.73 A 1.17,1.17 1.3 0 0 502.63,77.56 Q 492.87,77.09 483.36,79.50 Q 480.61,80.20 479.00,82.48 Z"/>
<path fill="#010101" d="M 289.70,56.19 Q 294.25,50.67 301.24,48.95 Q 312.90,46.07 322.69,51.81 Q 327.41,54.58 329.79,60.37 Q 333.22,68.68 333.19,77.49 A 1.10,1.10 -6.2 0 1 332.33,78.56 Q 329.69,79.16 327.00,79.13 Q 311.00,79.00 294.36,79.00 A 0.88,0.87 1.7 0 0 293.48,79.82 Q 293.35,81.95 293.75,84.15 Q 294.15,86.35 294.69,88.36 Q 296.15,93.75 300.47,96.64 Q 304.38,99.25 309.60,99.25 Q 318.09,99.26 323.19,91.44 A 1.21,1.07 -65.4 0 1 324.41,90.90 L 330.00,92.34 A 1.47,1.35 -67.4 0 1 330.77,94.45 Q 326.04,102.72 317.19,105.19 Q 313.29,106.27 308.54,106.00 Q 303.61,105.71 300.01,104.68 Q 294.37,103.07 290.49,98.84 Q 287.23,95.29 285.47,89.32 Q 282.29,78.47 284.75,66.75 Q 286.04,60.63 289.70,56.19 ZM 297.00,60.73 Q 294.39,64.08 293.83,68.27 Q 293.81,68.39 293.57,69.72 Q 293.13,72.04 295.60,71.87 Q 297.35,71.76 297.41,71.76 Q 309.95,71.84 322.50,71.75 A 0.53,0.52 1.1 0 0 323.03,71.25 Q 323.33,63.99 318.98,59.50 Q 314.63,55.02 308.41,54.83 Q 301.76,54.62 297.00,60.73 Z"/>
<path fill="#010101" d="M 354.70,57.60 Q 356.46,56.04 358.09,54.34 Q 366.11,45.97 377.76,48.43 Q 387.63,50.52 389.52,60.50 Q 390.22,64.22 390.25,68.00 Q 390.38,85.88 389.99,103.99 A 0.73,0.67 89.2 0 1 389.35,104.71 L 382.33,104.96 A 1.12,1.04 89.0 0 1 381.25,103.84 Q 381.26,86.03 380.90,69.56 Q 380.81,65.76 380.06,62.04 Q 379.34,58.47 376.69,56.71 Q 374.71,55.38 371.03,55.28 Q 359.07,54.96 355.88,64.80 Q 354.77,68.25 354.95,79.30 Q 355.15,91.50 354.47,103.68 A 0.77,0.74 82.8 0 1 353.97,104.36 Q 350.17,105.73 346.30,104.59 A 0.70,0.69 -82.8 0 1 345.80,103.93 Q 344.89,76.81 345.67,49.69 A 0.61,0.60 87.2 0 1 346.19,49.11 Q 349.79,48.64 353.27,49.61 A 0.72,0.71 6.4 0 1 353.79,50.25 L 354.29,57.44 Q 354.32,57.93 354.70,57.60 Z"/>
<path fill="#010101" d="M 444.32,58.68 Q 444.91,58.09 445.27,56.94 Q 445.72,55.47 445.89,55.11 Q 449.61,47.23 459.18,48.23 A 1.64,1.50 3.5 0 1 460.66,49.76 L 460.58,55.75 A 0.52,0.46 3.9 0 1 460.01,56.19 Q 449.90,54.95 446.00,63.75 Q 444.24,67.72 444.16,73.25 Q 443.92,88.13 443.75,103.01 A 1.92,1.91 80.1 0 1 442.52,104.77 Q 439.86,105.77 435.53,104.78 A 1.33,1.32 6.6 0 1 434.50,103.49 L 434.56,49.56 A 0.57,0.48 -89.0 0 1 435.06,48.99 L 441.61,49.24 A 1.66,1.46 89.9 0 1 443.02,50.84 L 443.26,58.26 Q 443.31,59.69 444.32,58.68 Z"/>
<rect fill="#000000" x="156.00" y="48.76" width="9.00" height="56.24" rx="0.38"/>
<path fill="#000000" d="M 24.90,49.51 A 0.84,0.84 41.7 0 1 26.31,49.43 Q 27.35,50.85 28.12,52.42 Q 28.59,53.38 28.40,54.16 Q 28.00,55.81 26.12,54.61 Q 23.09,52.68 24.90,49.51 Z"/>
<path fill="#ffffff" d="M 297.00,60.73 Q 301.76,54.62 308.41,54.83 Q 314.63,55.02 318.98,59.50 Q 323.33,63.99 323.03,71.25 A 0.53,0.52 1.1 0 1 322.50,71.75 Q 309.95,71.84 297.41,71.76 Q 297.35,71.76 295.60,71.87 Q 293.13,72.04 293.57,69.72 Q 293.81,68.39 293.83,68.27 Q 294.39,64.08 297.00,60.73 Z"/>
<path fill="#ffffff" d="M 479.00,82.48 Q 480.61,80.20 483.36,79.50 Q 492.87,77.09 502.63,77.56 A 1.17,1.17 1.3 0 1 503.75,78.73 Q 503.74,82.97 502.42,86.97 Q 499.00,97.38 487.81,98.56 Q 481.36,99.24 478.25,94.88 Q 476.33,92.19 476.63,88.75 Q 476.92,85.40 479.00,82.48 Z"/>
</svg>
