<svg xmlns="http://www.w3.org/2000/svg" xmlns:xlink="http://www.w3.org/1999/xlink" width="500" zoomAndPan="magnify" viewBox="0 0 375 374.999991" height="500" preserveAspectRatio="xMidYMid meet" version="1.0"><defs><g/></defs><path fill="#ffffff" d="M 55.347656 165.902344 C 55.46875 165.960938 55.527344 166.058594 55.527344 166.191406 C 55.527344 173.941406 55.539062 181.644531 55.5625 189.296875 C 55.5625 189.507812 55.492188 189.753906 55.351562 190.042969 C 47.882812 205.394531 40.382812 220.765625 32.847656 236.160156 C 32.816406 236.222656 32.785156 236.222656 32.75 236.160156 C 25.179688 220.945312 17.601562 205.734375 10.019531 190.523438 C 9.902344 190.296875 9.808594 190.085938 9.730469 189.898438 C 9.648438 189.703125 9.609375 189.480469 9.609375 189.230469 C 9.621094 181.644531 9.609375 173.996094 9.570312 166.289062 C 9.570312 166.121094 9.648438 166 9.796875 165.921875 L 32.410156 154.25 C 32.515625 154.199219 32.621094 154.199219 32.722656 154.25 Z M 13.214844 188.132812 L 32.484375 198.070312 C 32.542969 198.101562 32.601562 198.101562 32.664062 198.070312 L 52.078125 188.050781 C 52.121094 188.03125 52.140625 187.996094 52.140625 187.945312 L 52.140625 168.03125 C 52.140625 167.9375 52.101562 167.871094 52.015625 167.828125 L 32.636719 157.835938 C 32.597656 157.816406 32.554688 157.816406 32.515625 157.835938 L 13.167969 167.800781 C 13.050781 167.863281 12.992188 167.960938 12.992188 168.089844 L 12.992188 187.769531 C 12.992188 187.933594 13.066406 188.054688 13.214844 188.132812 Z M 13.214844 188.132812 " fill-opacity="1" fill-rule="nonzero"/><path fill="#ffffff" d="M 34.222656 169.105469 L 35.554688 168.304688 C 35.613281 168.269531 35.660156 168.28125 35.695312 168.339844 L 42.542969 179.71875 C 42.578125 179.777344 42.566406 179.824219 42.507812 179.859375 L 41.175781 180.65625 C 41.117188 180.691406 41.070312 180.679688 41.035156 180.621094 L 34.1875 169.242188 C 34.152344 169.183594 34.164062 169.140625 34.222656 169.105469 Z M 34.222656 169.105469 " fill-opacity="1" fill-rule="nonzero"/><path fill="#ffffff" d="M 37.644531 169.671875 L 38.953125 168.886719 C 39.019531 168.847656 39.074219 168.859375 39.113281 168.925781 L 43.625 176.429688 C 43.667969 176.496094 43.652344 176.546875 43.585938 176.585938 L 42.277344 177.371094 C 42.210938 177.410156 42.160156 177.398438 42.121094 177.332031 L 37.605469 169.832031 C 37.566406 169.765625 37.578125 169.714844 37.644531 169.671875 Z M 37.644531 169.671875 " fill-opacity="1" fill-rule="nonzero"/><path fill="#ffffff" d="M 44.28125 173.496094 C 44 173.75 43.675781 173.941406 43.320312 174.074219 C 43.277344 174.089844 43.242188 174.078125 43.214844 174.039062 L 41.011719 170.421875 C 40.972656 170.355469 40.984375 170.304688 41.054688 170.261719 L 41.945312 169.726562 C 42.015625 169.683594 42.089844 169.683594 42.160156 169.722656 L 44.148438 170.8125 C 44.265625 170.875 44.324219 170.972656 44.328125 171.109375 L 44.335938 173.382812 C 44.335938 173.429688 44.316406 173.46875 44.28125 173.496094 Z M 44.28125 173.496094 " fill-opacity="1" fill-rule="nonzero"/><path fill="#ffffff" d="M 28.339844 179.476562 L 35.902344 174.9375 C 35.949219 174.910156 35.984375 174.921875 36.011719 174.964844 L 36.832031 176.328125 C 36.859375 176.375 36.851562 176.410156 36.804688 176.4375 L 29.242188 180.976562 C 29.195312 181.003906 29.160156 180.996094 29.128906 180.949219 L 28.3125 179.589844 C 28.285156 179.542969 28.292969 179.503906 28.339844 179.476562 Z M 28.339844 179.476562 " fill-opacity="1" fill-rule="nonzero"/><path fill="#ffffff" d="M 22.621094 176.085938 L 23.980469 175.265625 C 24.03125 175.234375 24.066406 175.246094 24.097656 175.292969 L 30.972656 186.679688 C 31.003906 186.726562 30.992188 186.765625 30.945312 186.792969 L 29.582031 187.613281 C 29.535156 187.644531 29.496094 187.632812 29.46875 187.585938 L 22.589844 176.199219 C 22.5625 176.152344 22.570312 176.113281 22.621094 176.085938 Z M 22.621094 176.085938 " fill-opacity="1" fill-rule="nonzero"/><path fill="#ffffff" d="M 21.578125 179.332031 L 22.863281 178.5625 C 22.933594 178.519531 22.992188 178.535156 23.039062 178.605469 L 27.539062 186.085938 C 27.582031 186.160156 27.566406 186.21875 27.492188 186.261719 L 26.210938 187.03125 C 26.136719 187.078125 26.078125 187.0625 26.03125 186.988281 L 21.53125 179.507812 C 21.488281 179.4375 21.503906 179.378906 21.578125 179.332031 Z M 21.578125 179.332031 " fill-opacity="1" fill-rule="nonzero"/><path fill="#ffffff" d="M 20.976562 185.089844 C 20.886719 185.039062 20.839844 184.964844 20.839844 184.871094 L 20.816406 182.632812 C 20.8125 182.507812 20.867188 182.410156 20.972656 182.34375 L 21.796875 181.824219 C 21.867188 181.78125 21.921875 181.796875 21.960938 181.867188 L 24.121094 185.460938 C 24.175781 185.550781 24.15625 185.625 24.066406 185.679688 L 23.191406 186.203125 C 23.125 186.242188 23.058594 186.246094 22.992188 186.207031 Z M 20.976562 185.089844 " fill-opacity="1" fill-rule="nonzero"/><g fill="#ffffff" fill-opacity="1"><g transform="translate(61.10618, 215.853034)"><g><path d="M 12.375 -43.1875 L 12.375 -25.125 L 39.46875 -25.125 L 39.46875 -19.6875 L 12.375 -19.6875 L 12.375 0 L 5.796875 0 L 5.796875 -48.5625 L 40.296875 -48.5625 L 40.296875 -43.1875 Z M 12.375 -43.1875 "/></g></g></g><g fill="#ffffff" fill-opacity="1"><g transform="translate(104.221941, 215.853034)"><g><path d="M 4.71875 -45.21875 L 4.71875 -51.15625 L 10.921875 -51.15625 L 10.921875 -45.21875 Z M 4.71875 0 L 4.71875 -37.296875 L 10.921875 -37.296875 L 10.921875 0 Z M 4.71875 0 "/></g></g></g><g fill="#ffffff" fill-opacity="1"><g transform="translate(119.903538, 215.853034)"><g><path d="M 19.09375 -0.28125 C 17.050781 0.269531 14.960938 0.546875 12.828125 0.546875 C 7.859375 0.546875 5.375 -2.265625 5.375 -7.890625 L 5.375 -32.78125 L 1.0625 -32.78125 L 1.0625 -37.296875 L 5.625 -37.296875 L 7.453125 -45.640625 L 11.578125 -45.640625 L 11.578125 -37.296875 L 18.46875 -37.296875 L 18.46875 -32.78125 L 11.578125 -32.78125 L 11.578125 -9.234375 C 11.578125 -7.441406 11.867188 -6.179688 12.453125 -5.453125 C 13.046875 -4.734375 14.066406 -4.375 15.515625 -4.375 C 16.335938 -4.375 17.53125 -4.535156 19.09375 -4.859375 Z M 19.09375 -0.28125 "/></g></g></g><g fill="#ffffff" fill-opacity="1"><g transform="translate(139.514148, 215.853034)"><g><path d="M 27.296875 -43.921875 C 21.921875 -43.921875 17.738281 -42.1875 14.75 -38.71875 C 11.757812 -35.257812 10.265625 -30.523438 10.265625 -24.515625 C 10.265625 -18.554688 11.820312 -13.765625 14.9375 -10.140625 C 18.050781 -6.523438 22.265625 -4.71875 27.578125 -4.71875 C 34.378906 -4.71875 39.492188 -8.085938 42.921875 -14.828125 L 48.296875 -12.140625 C 46.296875 -7.953125 43.484375 -4.765625 39.859375 -2.578125 C 36.242188 -0.398438 32.046875 0.6875 27.265625 0.6875 C 22.367188 0.6875 18.132812 -0.328125 14.5625 -2.359375 C 10.988281 -4.390625 8.265625 -7.296875 6.390625 -11.078125 C 4.515625 -14.859375 3.578125 -19.335938 3.578125 -24.515625 C 3.578125 -32.253906 5.664062 -38.316406 9.84375 -42.703125 C 14.03125 -47.097656 19.828125 -49.296875 27.234375 -49.296875 C 32.398438 -49.296875 36.71875 -48.28125 40.1875 -46.25 C 43.65625 -44.226562 46.207031 -41.234375 47.84375 -37.265625 L 41.609375 -35.1875 C 40.484375 -38.019531 38.671875 -40.179688 36.171875 -41.671875 C 33.679688 -43.171875 30.722656 -43.921875 27.296875 -43.921875 Z M 27.296875 -43.921875 "/></g></g></g><g fill="#ffffff" fill-opacity="1"><g transform="translate(190.487937, 215.853034)"><g><path d="M 9.515625 -17.34375 C 9.515625 -13.0625 10.398438 -9.757812 12.171875 -7.4375 C 13.941406 -5.125 16.523438 -3.96875 19.921875 -3.96875 C 22.609375 -3.96875 24.757812 -4.503906 26.375 -5.578125 C 28 -6.660156 29.097656 -8.03125 29.671875 -9.6875 L 35.125 -8.140625 C 32.894531 -2.253906 27.828125 0.6875 19.921875 0.6875 C 14.410156 0.6875 10.210938 -0.953125 7.328125 -4.234375 C 4.441406 -7.523438 3 -12.410156 3 -18.890625 C 3 -25.046875 4.441406 -29.765625 7.328125 -33.046875 C 10.210938 -36.335938 14.332031 -37.984375 19.6875 -37.984375 C 30.644531 -37.984375 36.125 -31.378906 36.125 -18.171875 L 36.125 -17.34375 Z M 29.71875 -22.09375 C 29.375 -26.019531 28.375 -28.882812 26.71875 -30.6875 C 25.0625 -32.5 22.679688 -33.40625 19.578125 -33.40625 C 16.566406 -33.40625 14.179688 -32.398438 12.421875 -30.390625 C 10.671875 -28.378906 9.722656 -25.613281 9.578125 -22.09375 Z M 29.71875 -22.09375 "/></g></g></g><g fill="#ffffff" fill-opacity="1"><g transform="translate(229.743615, 215.853034)"><g><path d="M 28.4375 0 L 28.4375 -23.640625 C 28.4375 -26.097656 28.191406 -28.003906 27.703125 -29.359375 C 27.222656 -30.722656 26.453125 -31.703125 25.390625 -32.296875 C 24.335938 -32.890625 22.789062 -33.1875 20.75 -33.1875 C 17.757812 -33.1875 15.398438 -32.164062 13.671875 -30.125 C 11.953125 -28.082031 11.09375 -25.242188 11.09375 -21.609375 L 11.09375 0 L 4.890625 0 L 4.890625 -29.328125 C 4.890625 -33.671875 4.820312 -36.328125 4.6875 -37.296875 L 10.546875 -37.296875 C 10.566406 -37.179688 10.585938 -36.867188 10.609375 -36.359375 C 10.640625 -35.859375 10.671875 -35.28125 10.703125 -34.625 C 10.734375 -33.96875 10.773438 -32.734375 10.828125 -30.921875 L 10.921875 -30.921875 C 12.347656 -33.492188 14 -35.3125 15.875 -36.375 C 17.75 -37.445312 20.078125 -37.984375 22.859375 -37.984375 C 26.941406 -37.984375 29.929688 -36.96875 31.828125 -34.9375 C 33.722656 -32.90625 34.671875 -29.546875 34.671875 -24.859375 L 34.671875 0 Z M 28.4375 0 "/></g></g></g><g fill="#ffffff" fill-opacity="1"><g transform="translate(268.999293, 215.853034)"><g><path d="M 19.09375 -0.28125 C 17.050781 0.269531 14.960938 0.546875 12.828125 0.546875 C 7.859375 0.546875 5.375 -2.265625 5.375 -7.890625 L 5.375 -32.78125 L 1.0625 -32.78125 L 1.0625 -37.296875 L 5.625 -37.296875 L 7.453125 -45.640625 L 11.578125 -45.640625 L 11.578125 -37.296875 L 18.46875 -37.296875 L 18.46875 -32.78125 L 11.578125 -32.78125 L 11.578125 -9.234375 C 11.578125 -7.441406 11.867188 -6.179688 12.453125 -5.453125 C 13.046875 -4.734375 14.066406 -4.375 15.515625 -4.375 C 16.335938 -4.375 17.53125 -4.535156 19.09375 -4.859375 Z M 19.09375 -0.28125 "/></g></g></g><g fill="#ffffff" fill-opacity="1"><g transform="translate(288.609903, 215.853034)"><g><path d="M 4.890625 0 L 4.890625 -28.609375 C 4.890625 -31.234375 4.820312 -34.128906 4.6875 -37.296875 L 10.546875 -37.296875 C 10.734375 -33.066406 10.828125 -30.523438 10.828125 -29.671875 L 10.96875 -29.671875 C 11.945312 -32.867188 13.078125 -35.050781 14.359375 -36.21875 C 15.648438 -37.394531 17.46875 -37.984375 19.8125 -37.984375 C 20.644531 -37.984375 21.488281 -37.867188 22.34375 -37.640625 L 22.34375 -31.953125 C 21.507812 -32.179688 20.40625 -32.296875 19.03125 -32.296875 C 16.457031 -32.296875 14.488281 -31.1875 13.125 -28.96875 C 11.769531 -26.75 11.09375 -23.570312 11.09375 -19.4375 L 11.09375 0 Z M 4.890625 0 "/></g></g></g><g fill="#ffffff" fill-opacity="1"><g transform="translate(312.115053, 215.853034)"><g><path d="M 14.265625 0.6875 C 10.523438 0.6875 7.710938 -0.296875 5.828125 -2.265625 C 3.941406 -4.242188 3 -6.957031 3 -10.40625 C 3 -14.269531 4.265625 -17.234375 6.796875 -19.296875 C 9.335938 -21.367188 13.4375 -22.472656 19.09375 -22.609375 L 27.46875 -22.75 L 27.46875 -24.78125 C 27.46875 -27.8125 26.820312 -29.984375 25.53125 -31.296875 C 24.25 -32.609375 22.226562 -33.265625 19.46875 -33.265625 C 16.6875 -33.265625 14.664062 -32.789062 13.40625 -31.84375 C 12.144531 -30.90625 11.390625 -29.398438 11.140625 -27.328125 L 4.65625 -27.921875 C 5.707031 -34.628906 10.691406 -37.984375 19.609375 -37.984375 C 24.296875 -37.984375 27.820312 -36.910156 30.1875 -34.765625 C 32.5625 -32.617188 33.75 -29.507812 33.75 -25.4375 L 33.75 -9.375 C 33.75 -7.539062 33.988281 -6.15625 34.46875 -5.21875 C 34.945312 -4.289062 35.867188 -3.828125 37.234375 -3.828125 C 37.828125 -3.828125 38.503906 -3.90625 39.265625 -4.0625 L 39.265625 -0.203125 C 37.703125 0.160156 36.101562 0.34375 34.46875 0.34375 C 32.164062 0.34375 30.492188 -0.257812 29.453125 -1.46875 C 28.410156 -2.675781 27.816406 -4.566406 27.671875 -7.140625 L 27.46875 -7.140625 C 25.882812 -4.285156 24.039062 -2.265625 21.9375 -1.078125 C 19.832031 0.0976562 17.273438 0.6875 14.265625 0.6875 Z M 15.6875 -3.96875 C 17.957031 -3.96875 19.976562 -4.484375 21.75 -5.515625 C 23.519531 -6.546875 24.914062 -7.960938 25.9375 -9.765625 C 26.957031 -11.578125 27.46875 -13.4375 27.46875 -15.34375 L 27.46875 -18.40625 L 20.6875 -18.265625 C 17.757812 -18.222656 15.539062 -17.925781 14.03125 -17.375 C 12.53125 -16.820312 11.378906 -15.96875 10.578125 -14.8125 C 9.773438 -13.664062 9.375 -12.164062 9.375 -10.3125 C 9.375 -8.28125 9.921875 -6.710938 11.015625 -5.609375 C 12.109375 -4.515625 13.664062 -3.96875 15.6875 -3.96875 Z M 15.6875 -3.96875 "/></g></g></g><g fill="#ffffff" fill-opacity="1"><g transform="translate(351.370747, 215.853034)"><g><path d="M 4.75 0 L 4.75 -51.15625 L 10.96875 -51.15625 L 10.96875 0 Z M 4.75 0 "/></g></g></g></svg>